<svg xmlns="http://www.w3.org/2000/svg" version="2.0" viewBox="0 0 256 256"><path fill="#512BD4" d="M256 0H0v256h256V0Z"/><path fill="#fff" d="M106.223 162.535h11.765V96h-10.362v42.872c0 4.207.151 7.192.452 8.955h-.181c-.362-.743-1.176-2.103-2.444-4.084L75.496 96H62.96v66.535h10.408V118.92c0-4.67-.12-7.717-.362-9.14h.272a21.862 21.862 0 0 0 1.946 3.851l30.998 48.904ZM41.012 161.746c1.267 1.206 2.805 1.809 4.615 1.809 1.84 0 3.394-.603 4.661-1.809 1.298-1.237 1.946-2.707 1.946-4.408 0-1.732-.648-3.216-1.946-4.454-1.267-1.237-2.82-1.856-4.66-1.856-1.81 0-3.35.619-4.616 1.856-1.267 1.238-1.901 2.722-1.901 4.454 0 1.701.634 3.171 1.9 4.408ZM168.673 162.535h-36.428V96h34.98v9.373h-24.21v18.837h22.31v9.326h-22.31v19.673h25.658v9.326ZM201.8 105.373h18.645V96h-48.014v9.373h18.599v57.162h10.77v-57.162Z"/></svg>